# xmcd
#
# Track frame offsets:
# 150
# 11370
# 30787
# 41344
# 58531
# 83680
# 108442
# 132659
# 153166
# 177043
# 194437
# 236209
#
# Disc length: 3437 seconds
#
#
# Revision: 0
# Processed by: cddbd v1.5.1PL2 Copyright (c) Steve Scherf et al.
# Submitted via: FreeRIP 2.942 
#
DISCID=8a0d6b0c
DTITLE=John renbourn and Stefan Grossman - Live In Concert
DYEAR=1900
DGENRE=Blues
TTITLE0=01-Looper's Corner
TTITLE1=02-The Shoes of the fischerman's Wife are some jive as slippers
TTITLE2=03-Twelve Sticks
TTITLE3=04-Cocaine Blues
TTITLE4=05-Tightrope
TTITLE5=06-Medley:Sheebeg an Sheemore/Drunken Wagoner
TTITLE6=07-Medley:Cincinnati Flow Rag/New York City Rag/Hot Dogs
TTITLE7=08-Medley:Judy/Angie
TTITLE8=09-Medley:Lament for Owen Roe O'Neil/-Mist Covered Mountains of Home
TTITLE9=10--Great Dreams from Heaven
TTITLE10=11-Sweet potato
TTITLE11=12-Goodbye Porkpie Hat
EXTD=
EXTT0=
EXTT1=
EXTT2=
EXTT3=
EXTT4=
EXTT5=
EXTT6=
EXTT7=
EXTT8=
EXTT9=
EXTT10=
EXTT11=
PLAYORDER=
